<mxfile host="app.diagrams.net" modified="2022-05-25T17:55:21.988Z" agent="5.0 (Windows NT 10.0; Win64; x64) AppleWebKit/537.36 (KHTML, like Gecko) Chrome/101.0.0.0 Safari/537.36" etag="XCB0Pr8shqe1BELs5c7D" version="18.1.2" type="github">
  <diagram id="6a731a19-8d31-9384-78a2-239565b7b9f0" name="Page-1">
    <mxGraphModel dx="2595" dy="541" grid="1" gridSize="10" guides="1" tooltips="1" connect="1" arrows="1" fold="1" page="1" pageScale="1" pageWidth="1169" pageHeight="827" background="none" math="0" shadow="0">
      <root>
        <mxCell id="0" />
        <mxCell id="1" parent="0" />
        <mxCell id="56" value="&lt;font style=&quot;font-size: 32px;&quot;&gt;Happy House&lt;/font&gt;" style="strokeColor=#BAC8D3;fillColor=#23445D;fontSize=24;strokeWidth=2;fontFamily=Helvetica;html=1;fontColor=#FFFFFF;fontStyle=0;spacingBottom=8;spacingRight=0;spacingLeft=83;" parent="1" vertex="1">
          <mxGeometry x="154" y="850.5" width="2030" height="80" as="geometry" />
        </mxCell>
        <mxCell id="57" value="Member" style="strokeColor=#BAC8D3;fillColor=#23445D;fontSize=24;strokeWidth=2;horizontal=0;fontFamily=Helvetica;html=1;fontColor=#FFFFFF;fontStyle=0" parent="1" vertex="1">
          <mxGeometry x="154" y="930.5" width="86" height="299.5" as="geometry" />
        </mxCell>
        <mxCell id="59" value="v 1.0" style="strokeColor=#BAC8D3;fillColor=#5d7f99;fontSize=19;strokeWidth=2;fontFamily=Helvetica;html=1;labelBackgroundColor=none;fontColor=#FFFFFF;" parent="1" vertex="1">
          <mxGeometry x="154" y="850.5" width="90" height="80" as="geometry" />
        </mxCell>
        <mxCell id="64" value="Notice" style="strokeColor=#BAC8D3;fillColor=#23445D;fontSize=24;strokeWidth=2;horizontal=0;fontFamily=Helvetica;html=1;fontColor=#FFFFFF;fontStyle=0" parent="1" vertex="1">
          <mxGeometry x="154" y="1230.5" width="86" height="200" as="geometry" />
        </mxCell>
        <mxCell id="67" value="Board" style="strokeColor=#BAC8D3;fillColor=#23445D;fontSize=24;strokeWidth=2;horizontal=0;fontFamily=Helvetica;html=1;fontColor=#FFFFFF;fontStyle=0" parent="1" vertex="1">
          <mxGeometry x="154" y="1430.5" width="86" height="200" as="geometry" />
        </mxCell>
        <mxCell id="68" value="" style="strokeColor=#FFFFFF;fillColor=#BAC8D3;fontSize=18;strokeWidth=2;fontFamily=Helvetica;html=1;opacity=60;" parent="1" vertex="1">
          <mxGeometry x="244" y="930.5" width="646.6666666666666" height="100" as="geometry" />
        </mxCell>
        <mxCell id="69" value="" style="strokeColor=#FFFFFF;fillColor=#BAC8D3;fontSize=18;strokeWidth=2;fontFamily=Helvetica;html=1;opacity=90;" parent="1" vertex="1">
          <mxGeometry x="244" y="1030.5" width="646.6666666666666" height="100" as="geometry" />
        </mxCell>
        <mxCell id="70" value="" style="strokeColor=#FFFFFF;fillColor=#BAC8D3;fontSize=18;strokeWidth=2;fontFamily=Helvetica;html=1;opacity=60;" parent="1" vertex="1">
          <mxGeometry x="244" y="1130.5" width="646.6666666666666" height="100" as="geometry" />
        </mxCell>
        <mxCell id="71" value="" style="strokeColor=#FFFFFF;fillColor=#BAC8D3;fontSize=18;strokeWidth=2;fontFamily=Helvetica;html=1;opacity=90;" parent="1" vertex="1">
          <mxGeometry x="244" y="1230.5" width="646.6666666666666" height="100" as="geometry" />
        </mxCell>
        <mxCell id="72" value="" style="strokeColor=#FFFFFF;fillColor=#BAC8D3;fontSize=18;strokeWidth=2;fontFamily=Helvetica;html=1;opacity=60;" parent="1" vertex="1">
          <mxGeometry x="244" y="1330.5" width="646.6666666666666" height="100" as="geometry" />
        </mxCell>
        <mxCell id="73" value="" style="strokeColor=#FFFFFF;fillColor=#BAC8D3;fontSize=18;strokeWidth=2;fontFamily=Helvetica;html=1;opacity=90;" parent="1" vertex="1">
          <mxGeometry x="244" y="1430.5" width="646.6666666666666" height="100" as="geometry" />
        </mxCell>
        <mxCell id="74" value="" style="strokeColor=#FFFFFF;fillColor=#BAC8D3;fontSize=18;strokeWidth=2;fontFamily=Helvetica;html=1;opacity=60;" parent="1" vertex="1">
          <mxGeometry x="244" y="1530.5" width="646.6666666666666" height="100" as="geometry" />
        </mxCell>
        <mxCell id="75" value="" style="strokeColor=#FFFFFF;fillColor=#BAC8D3;fontSize=18;strokeWidth=2;fontFamily=Helvetica;html=1;opacity=60;" parent="1" vertex="1">
          <mxGeometry x="890.6666666666666" y="930.5" width="647" height="100" as="geometry" />
        </mxCell>
        <mxCell id="76" value="" style="strokeColor=#FFFFFF;fillColor=#BAC8D3;fontSize=18;strokeWidth=2;fontFamily=Helvetica;html=1;opacity=90;" parent="1" vertex="1">
          <mxGeometry x="890.6666666666666" y="1030.5" width="646.6666666666666" height="100" as="geometry" />
        </mxCell>
        <mxCell id="77" value="" style="strokeColor=#FFFFFF;fillColor=#BAC8D3;fontSize=18;strokeWidth=2;fontFamily=Helvetica;html=1;opacity=60;" parent="1" vertex="1">
          <mxGeometry x="890.6666666666666" y="1130.5" width="646.6666666666666" height="100" as="geometry" />
        </mxCell>
        <mxCell id="78" value="" style="strokeColor=#FFFFFF;fillColor=#BAC8D3;fontSize=18;strokeWidth=2;fontFamily=Helvetica;html=1;opacity=90;" parent="1" vertex="1">
          <mxGeometry x="890.6666666666666" y="1230.5" width="646.6666666666666" height="100" as="geometry" />
        </mxCell>
        <mxCell id="79" value="" style="strokeColor=#FFFFFF;fillColor=#BAC8D3;fontSize=18;strokeWidth=2;fontFamily=Helvetica;html=1;opacity=60;" parent="1" vertex="1">
          <mxGeometry x="890.6666666666666" y="1330.5" width="646.6666666666666" height="100" as="geometry" />
        </mxCell>
        <mxCell id="80" value="" style="strokeColor=#FFFFFF;fillColor=#BAC8D3;fontSize=18;strokeWidth=2;fontFamily=Helvetica;html=1;opacity=90;" parent="1" vertex="1">
          <mxGeometry x="890.6666666666666" y="1430.5" width="646.6666666666666" height="100" as="geometry" />
        </mxCell>
        <mxCell id="81" value="" style="strokeColor=#FFFFFF;fillColor=#BAC8D3;fontSize=18;strokeWidth=2;fontFamily=Helvetica;html=1;opacity=60;fontStyle=4" parent="1" vertex="1">
          <mxGeometry x="890.6666666666666" y="1530.5" width="646.6666666666666" height="100" as="geometry" />
        </mxCell>
        <mxCell id="82" value="" style="strokeColor=#FFFFFF;fillColor=#BAC8D3;fontSize=18;strokeWidth=2;fontFamily=Helvetica;html=1;opacity=60;" parent="1" vertex="1">
          <mxGeometry x="1537.3333333333333" y="930.5" width="647" height="100" as="geometry" />
        </mxCell>
        <mxCell id="83" value="" style="strokeColor=#FFFFFF;fillColor=#BAC8D3;fontSize=18;strokeWidth=2;fontFamily=Helvetica;html=1;opacity=90;" parent="1" vertex="1">
          <mxGeometry x="1537.3333333333333" y="1030.5" width="646.6666666666666" height="100" as="geometry" />
        </mxCell>
        <mxCell id="84" value="" style="strokeColor=#FFFFFF;fillColor=#BAC8D3;fontSize=18;strokeWidth=2;fontFamily=Helvetica;html=1;opacity=60;" parent="1" vertex="1">
          <mxGeometry x="1537.3333333333333" y="1130.5" width="646.6666666666666" height="100" as="geometry" />
        </mxCell>
        <mxCell id="85" value="" style="strokeColor=#FFFFFF;fillColor=#BAC8D3;fontSize=18;strokeWidth=2;fontFamily=Helvetica;html=1;opacity=90;" parent="1" vertex="1">
          <mxGeometry x="1537.3333333333333" y="1230.5" width="646.6666666666666" height="100" as="geometry" />
        </mxCell>
        <mxCell id="86" value="" style="strokeColor=#FFFFFF;fillColor=#BAC8D3;fontSize=18;strokeWidth=2;fontFamily=Helvetica;html=1;opacity=60;" parent="1" vertex="1">
          <mxGeometry x="1537.3333333333333" y="1330.5" width="646.6666666666666" height="100" as="geometry" />
        </mxCell>
        <mxCell id="87" value="" style="strokeColor=#FFFFFF;fillColor=#BAC8D3;fontSize=18;strokeWidth=2;fontFamily=Helvetica;html=1;opacity=90;" parent="1" vertex="1">
          <mxGeometry x="1537.3333333333333" y="1430.5" width="646.6666666666666" height="100" as="geometry" />
        </mxCell>
        <mxCell id="88" value="" style="strokeColor=#FFFFFF;fillColor=#BAC8D3;fontSize=18;strokeWidth=2;fontFamily=Helvetica;html=1;opacity=60;fontStyle=4" parent="1" vertex="1">
          <mxGeometry x="1537.3333333333333" y="1530.5" width="646.6666666666666" height="100" as="geometry" />
        </mxCell>
        <mxCell id="rjNIYCZi8iE1wRwv1HyM-178" style="edgeStyle=orthogonalEdgeStyle;rounded=1;orthogonalLoop=1;jettySize=auto;html=1;exitX=1;exitY=0.5;exitDx=0;exitDy=0;entryX=0;entryY=0.5;entryDx=0;entryDy=0;fontSize=32;strokeWidth=3;" edge="1" parent="1" source="90" target="rjNIYCZi8iE1wRwv1HyM-175">
          <mxGeometry relative="1" as="geometry" />
        </mxCell>
        <mxCell id="rjNIYCZi8iE1wRwv1HyM-196" style="edgeStyle=orthogonalEdgeStyle;rounded=1;orthogonalLoop=1;jettySize=auto;html=1;exitX=1;exitY=0.5;exitDx=0;exitDy=0;entryX=0;entryY=0.5;entryDx=0;entryDy=0;fontSize=20;strokeWidth=3;" edge="1" parent="1" source="90" target="rjNIYCZi8iE1wRwv1HyM-195">
          <mxGeometry relative="1" as="geometry" />
        </mxCell>
        <mxCell id="90" value="&lt;font style=&quot;font-size: 20px;&quot;&gt;home&lt;/font&gt;" style="rounded=1;strokeWidth=2;fontFamily=Helvetica;html=1;" parent="1" vertex="1">
          <mxGeometry x="270.3945578231293" y="955.5" width="127" height="50" as="geometry" />
        </mxCell>
        <mxCell id="rjNIYCZi8iE1wRwv1HyM-157" style="edgeStyle=orthogonalEdgeStyle;rounded=1;orthogonalLoop=1;jettySize=auto;html=1;exitX=1;exitY=0.5;exitDx=0;exitDy=0;entryX=0;entryY=0.5;entryDx=0;entryDy=0;fontSize=32;strokeWidth=3;" edge="1" parent="1" source="91" target="rjNIYCZi8iE1wRwv1HyM-156">
          <mxGeometry relative="1" as="geometry" />
        </mxCell>
        <mxCell id="91" value="&lt;font style=&quot;font-size: 20px;&quot;&gt;로그인&lt;/font&gt;" style="rounded=1;strokeWidth=2;fontFamily=Helvetica;html=1;fontSize=14;" parent="1" vertex="1">
          <mxGeometry x="660.004761904762" y="1155.5" width="127" height="50" as="geometry" />
        </mxCell>
        <mxCell id="rjNIYCZi8iE1wRwv1HyM-155" style="edgeStyle=orthogonalEdgeStyle;rounded=1;orthogonalLoop=1;jettySize=auto;html=1;exitX=1;exitY=0.75;exitDx=0;exitDy=0;entryX=0.5;entryY=0;entryDx=0;entryDy=0;fontSize=32;strokeWidth=3;" edge="1" parent="1" source="92" target="91">
          <mxGeometry relative="1" as="geometry" />
        </mxCell>
        <mxCell id="92" value="&lt;font style=&quot;font-size: 20px;&quot;&gt;회원가입&lt;/font&gt;" style="rounded=1;strokeWidth=2;fontFamily=Helvetica;html=1;" parent="1" vertex="1">
          <mxGeometry x="503.8337414965986" y="1050" width="127" height="50" as="geometry" />
        </mxCell>
        <mxCell id="112" value="" style="edgeStyle=elbowEdgeStyle;elbow=horizontal;strokeWidth=3;strokeColor=#0C343D;fontFamily=Helvetica;html=1;entryX=0;entryY=0.5;entryDx=0;entryDy=0;" parent="1" source="90" target="91" edge="1">
          <mxGeometry x="6.448979591836746" y="830.5" width="131.97278911564624" height="100" as="geometry">
            <mxPoint x="6.448979591836746" y="930.5" as="sourcePoint" />
            <mxPoint x="138.421768707483" y="830.5" as="targetPoint" />
            <Array as="points">
              <mxPoint x="450" y="1070" />
            </Array>
          </mxGeometry>
        </mxCell>
        <mxCell id="119" value="" style="edgeStyle=elbowEdgeStyle;elbow=horizontal;strokeWidth=3;strokeColor=#0C343D;fontFamily=Helvetica;html=1;" parent="1" source="91" edge="1">
          <mxGeometry x="6.448979591836746" y="830.5" width="131.97278911564624" height="100" as="geometry">
            <mxPoint x="6.448979591836746" y="930.5" as="sourcePoint" />
            <mxPoint x="1161.4149659863942" y="1080.5" as="targetPoint" />
          </mxGeometry>
        </mxCell>
        <mxCell id="rjNIYCZi8iE1wRwv1HyM-145" value="House" style="strokeColor=#BAC8D3;fillColor=#23445D;fontSize=24;strokeWidth=2;horizontal=0;fontFamily=Helvetica;html=1;fontColor=#FFFFFF;fontStyle=0" vertex="1" parent="1">
          <mxGeometry x="154" y="1630.5" width="86" height="299.5" as="geometry" />
        </mxCell>
        <mxCell id="rjNIYCZi8iE1wRwv1HyM-147" value="" style="strokeColor=#FFFFFF;fillColor=#BAC8D3;fontSize=18;strokeWidth=2;fontFamily=Helvetica;html=1;opacity=60;" vertex="1" parent="1">
          <mxGeometry x="244" y="1730" width="646.6666666666666" height="100" as="geometry" />
        </mxCell>
        <mxCell id="rjNIYCZi8iE1wRwv1HyM-148" value="" style="strokeColor=#FFFFFF;fillColor=#BAC8D3;fontSize=18;strokeWidth=2;fontFamily=Helvetica;html=1;opacity=60;fontStyle=4" vertex="1" parent="1">
          <mxGeometry x="890.66" y="1730" width="646.67" height="99.5" as="geometry" />
        </mxCell>
        <mxCell id="rjNIYCZi8iE1wRwv1HyM-150" value="" style="edgeStyle=elbowEdgeStyle;elbow=horizontal;strokeWidth=3;strokeColor=#0C343D;fontFamily=Helvetica;html=1;entryX=0;entryY=0.5;entryDx=0;entryDy=0;exitX=1;exitY=0.5;exitDx=0;exitDy=0;" edge="1" parent="1" source="90" target="92">
          <mxGeometry x="16.448979591836746" y="840.5" width="131.97278911564624" height="100" as="geometry">
            <mxPoint x="407.39455782312916" y="990.5" as="sourcePoint" />
            <mxPoint x="510.00476190476184" y="1085" as="targetPoint" />
            <Array as="points" />
          </mxGeometry>
        </mxCell>
        <mxCell id="rjNIYCZi8iE1wRwv1HyM-151" value="&lt;span style=&quot;font-size: 20px;&quot;&gt;로그아웃&lt;/span&gt;" style="rounded=1;strokeWidth=2;fontFamily=Helvetica;html=1;fontSize=14;" vertex="1" parent="1">
          <mxGeometry x="1160.0047619047618" y="1055.5" width="127" height="50" as="geometry" />
        </mxCell>
        <mxCell id="rjNIYCZi8iE1wRwv1HyM-164" style="edgeStyle=orthogonalEdgeStyle;rounded=1;orthogonalLoop=1;jettySize=auto;html=1;exitX=1;exitY=0.5;exitDx=0;exitDy=0;fontSize=32;strokeWidth=3;" edge="1" parent="1" source="rjNIYCZi8iE1wRwv1HyM-156" target="rjNIYCZi8iE1wRwv1HyM-161">
          <mxGeometry relative="1" as="geometry" />
        </mxCell>
        <mxCell id="rjNIYCZi8iE1wRwv1HyM-169" style="edgeStyle=orthogonalEdgeStyle;rounded=1;orthogonalLoop=1;jettySize=auto;html=1;entryX=0;entryY=0.5;entryDx=0;entryDy=0;fontSize=32;strokeWidth=3;" edge="1" parent="1" source="rjNIYCZi8iE1wRwv1HyM-156" target="rjNIYCZi8iE1wRwv1HyM-160">
          <mxGeometry relative="1" as="geometry" />
        </mxCell>
        <mxCell id="rjNIYCZi8iE1wRwv1HyM-156" value="&lt;span style=&quot;font-size: 20px;&quot;&gt;내 정보&lt;/span&gt;" style="rounded=1;strokeWidth=2;fontFamily=Helvetica;html=1;fontSize=14;" vertex="1" parent="1">
          <mxGeometry x="1160.0047619047618" y="1155.5" width="127" height="50" as="geometry" />
        </mxCell>
        <mxCell id="rjNIYCZi8iE1wRwv1HyM-160" value="&lt;span style=&quot;font-size: 20px;&quot;&gt;회원 탈퇴&lt;br&gt;&lt;/span&gt;" style="rounded=1;strokeWidth=2;fontFamily=Helvetica;html=1;fontSize=14;" vertex="1" parent="1">
          <mxGeometry x="1690.0047619047618" y="1055.5" width="127" height="50" as="geometry" />
        </mxCell>
        <mxCell id="rjNIYCZi8iE1wRwv1HyM-161" value="&lt;span style=&quot;font-size: 20px;&quot;&gt;내 정보 수정&lt;br&gt;&lt;/span&gt;" style="rounded=1;strokeWidth=2;fontFamily=Helvetica;html=1;fontSize=14;" vertex="1" parent="1">
          <mxGeometry x="1690.0047619047618" y="1155.5" width="127" height="50" as="geometry" />
        </mxCell>
        <mxCell id="rjNIYCZi8iE1wRwv1HyM-181" value="" style="edgeStyle=orthogonalEdgeStyle;rounded=1;orthogonalLoop=1;jettySize=auto;html=1;fontSize=32;strokeWidth=3;" edge="1" parent="1" source="rjNIYCZi8iE1wRwv1HyM-175" target="rjNIYCZi8iE1wRwv1HyM-180">
          <mxGeometry relative="1" as="geometry" />
        </mxCell>
        <mxCell id="rjNIYCZi8iE1wRwv1HyM-175" value="&lt;span style=&quot;font-size: 20px;&quot;&gt;공지사항 &lt;br&gt;리스트&lt;/span&gt;" style="rounded=1;strokeWidth=2;fontFamily=Helvetica;html=1;fontSize=14;" vertex="1" parent="1">
          <mxGeometry x="503.834761904762" y="1255.5" width="127" height="50" as="geometry" />
        </mxCell>
        <mxCell id="rjNIYCZi8iE1wRwv1HyM-193" style="edgeStyle=orthogonalEdgeStyle;rounded=1;orthogonalLoop=1;jettySize=auto;html=1;exitX=1;exitY=0.5;exitDx=0;exitDy=0;entryX=0;entryY=0.5;entryDx=0;entryDy=0;fontSize=20;strokeWidth=3;" edge="1" parent="1" source="rjNIYCZi8iE1wRwv1HyM-176" target="rjNIYCZi8iE1wRwv1HyM-188">
          <mxGeometry relative="1" as="geometry" />
        </mxCell>
        <mxCell id="rjNIYCZi8iE1wRwv1HyM-194" style="edgeStyle=orthogonalEdgeStyle;rounded=1;orthogonalLoop=1;jettySize=auto;html=1;exitX=1;exitY=0.5;exitDx=0;exitDy=0;entryX=0;entryY=0.5;entryDx=0;entryDy=0;fontSize=20;strokeWidth=3;" edge="1" parent="1" source="rjNIYCZi8iE1wRwv1HyM-176" target="rjNIYCZi8iE1wRwv1HyM-187">
          <mxGeometry relative="1" as="geometry" />
        </mxCell>
        <mxCell id="rjNIYCZi8iE1wRwv1HyM-176" value="&lt;span style=&quot;font-size: 20px;&quot;&gt;공지사항 &lt;br&gt;관리&lt;br&gt;&lt;/span&gt;" style="rounded=1;strokeWidth=2;fontFamily=Helvetica;html=1;fontSize=14;" vertex="1" parent="1">
          <mxGeometry x="1160.004761904762" y="1350" width="127" height="50" as="geometry" />
        </mxCell>
        <mxCell id="rjNIYCZi8iE1wRwv1HyM-184" style="edgeStyle=orthogonalEdgeStyle;rounded=1;orthogonalLoop=1;jettySize=auto;html=1;exitX=1;exitY=0.5;exitDx=0;exitDy=0;entryX=0;entryY=0.5;entryDx=0;entryDy=0;fontSize=32;strokeWidth=3;" edge="1" parent="1" source="rjNIYCZi8iE1wRwv1HyM-180" target="rjNIYCZi8iE1wRwv1HyM-176">
          <mxGeometry relative="1" as="geometry" />
        </mxCell>
        <mxCell id="rjNIYCZi8iE1wRwv1HyM-191" style="edgeStyle=orthogonalEdgeStyle;rounded=1;orthogonalLoop=1;jettySize=auto;html=1;exitX=1;exitY=0.5;exitDx=0;exitDy=0;entryX=0;entryY=0.5;entryDx=0;entryDy=0;fontSize=20;strokeWidth=3;" edge="1" parent="1" source="rjNIYCZi8iE1wRwv1HyM-180" target="rjNIYCZi8iE1wRwv1HyM-186">
          <mxGeometry relative="1" as="geometry" />
        </mxCell>
        <mxCell id="rjNIYCZi8iE1wRwv1HyM-208" style="edgeStyle=orthogonalEdgeStyle;rounded=1;orthogonalLoop=1;jettySize=auto;html=1;exitX=0.5;exitY=1;exitDx=0;exitDy=0;entryX=0.5;entryY=1;entryDx=0;entryDy=0;fontSize=20;strokeWidth=3;" edge="1" parent="1" source="rjNIYCZi8iE1wRwv1HyM-180" target="rjNIYCZi8iE1wRwv1HyM-175">
          <mxGeometry relative="1" as="geometry" />
        </mxCell>
        <mxCell id="rjNIYCZi8iE1wRwv1HyM-180" value="&lt;font style=&quot;font-size: 20px;&quot;&gt;관리자&lt;br&gt;&amp;nbsp;확인&lt;/font&gt;" style="rhombus;whiteSpace=wrap;html=1;fontSize=14;rounded=1;strokeWidth=2;arcSize=0;" vertex="1" parent="1">
          <mxGeometry x="830" y="1225.75" width="110" height="109.5" as="geometry" />
        </mxCell>
        <mxCell id="rjNIYCZi8iE1wRwv1HyM-186" value="&lt;span style=&quot;font-size: 20px;&quot;&gt;공지사항 &lt;br&gt;작성&lt;br&gt;&lt;/span&gt;" style="rounded=1;strokeWidth=2;fontFamily=Helvetica;html=1;fontSize=14;" vertex="1" parent="1">
          <mxGeometry x="1160.004761904762" y="1255.5" width="127" height="50" as="geometry" />
        </mxCell>
        <mxCell id="rjNIYCZi8iE1wRwv1HyM-187" value="&lt;span style=&quot;font-size: 20px;&quot;&gt;공지사항 &lt;br&gt;수정&lt;br&gt;&lt;/span&gt;" style="rounded=1;strokeWidth=2;fontFamily=Helvetica;html=1;fontSize=14;" vertex="1" parent="1">
          <mxGeometry x="1690.004761904762" y="1255.5" width="127" height="50" as="geometry" />
        </mxCell>
        <mxCell id="rjNIYCZi8iE1wRwv1HyM-188" value="&lt;span style=&quot;font-size: 20px;&quot;&gt;공지사항 &lt;br&gt;삭제&lt;br&gt;&lt;/span&gt;" style="rounded=1;strokeWidth=2;fontFamily=Helvetica;html=1;fontSize=14;" vertex="1" parent="1">
          <mxGeometry x="1690.004761904762" y="1350" width="127" height="50" as="geometry" />
        </mxCell>
        <mxCell id="rjNIYCZi8iE1wRwv1HyM-198" style="edgeStyle=orthogonalEdgeStyle;rounded=1;orthogonalLoop=1;jettySize=auto;html=1;exitX=1;exitY=0.5;exitDx=0;exitDy=0;entryX=0;entryY=0.5;entryDx=0;entryDy=0;fontSize=20;strokeWidth=3;" edge="1" parent="1" source="rjNIYCZi8iE1wRwv1HyM-195" target="rjNIYCZi8iE1wRwv1HyM-197">
          <mxGeometry relative="1" as="geometry" />
        </mxCell>
        <mxCell id="rjNIYCZi8iE1wRwv1HyM-195" value="&lt;span style=&quot;font-size: 20px;&quot;&gt;게시글&lt;br&gt;리스트&lt;br&gt;&lt;/span&gt;" style="rounded=1;strokeWidth=2;fontFamily=Helvetica;html=1;fontSize=14;" vertex="1" parent="1">
          <mxGeometry x="503.834761904762" y="1455.5" width="127" height="50" as="geometry" />
        </mxCell>
        <mxCell id="rjNIYCZi8iE1wRwv1HyM-203" style="edgeStyle=orthogonalEdgeStyle;rounded=1;orthogonalLoop=1;jettySize=auto;html=1;exitX=1;exitY=0.5;exitDx=0;exitDy=0;fontSize=20;strokeWidth=3;" edge="1" parent="1" source="rjNIYCZi8iE1wRwv1HyM-197" target="rjNIYCZi8iE1wRwv1HyM-199">
          <mxGeometry relative="1" as="geometry" />
        </mxCell>
        <mxCell id="rjNIYCZi8iE1wRwv1HyM-206" style="edgeStyle=orthogonalEdgeStyle;rounded=1;orthogonalLoop=1;jettySize=auto;html=1;exitX=0.5;exitY=1;exitDx=0;exitDy=0;entryX=0.5;entryY=1;entryDx=0;entryDy=0;fontSize=20;strokeWidth=3;" edge="1" parent="1" source="rjNIYCZi8iE1wRwv1HyM-197" target="rjNIYCZi8iE1wRwv1HyM-195">
          <mxGeometry relative="1" as="geometry" />
        </mxCell>
        <mxCell id="rjNIYCZi8iE1wRwv1HyM-209" style="edgeStyle=orthogonalEdgeStyle;rounded=1;orthogonalLoop=1;jettySize=auto;html=1;exitX=1;exitY=0.5;exitDx=0;exitDy=0;entryX=0;entryY=0.5;entryDx=0;entryDy=0;fontSize=20;strokeWidth=3;" edge="1" parent="1" source="rjNIYCZi8iE1wRwv1HyM-197" target="rjNIYCZi8iE1wRwv1HyM-200">
          <mxGeometry relative="1" as="geometry" />
        </mxCell>
        <mxCell id="rjNIYCZi8iE1wRwv1HyM-197" value="&lt;font style=&quot;font-size: 20px;&quot;&gt;로그인&lt;br&gt;&amp;nbsp;확인&lt;/font&gt;" style="rhombus;whiteSpace=wrap;html=1;fontSize=14;rounded=1;strokeWidth=2;arcSize=0;" vertex="1" parent="1">
          <mxGeometry x="830" y="1425.75" width="110" height="109.5" as="geometry" />
        </mxCell>
        <mxCell id="rjNIYCZi8iE1wRwv1HyM-199" value="&lt;span style=&quot;font-size: 20px;&quot;&gt;게시글&lt;br&gt;작성&lt;br&gt;&lt;/span&gt;" style="rounded=1;strokeWidth=2;fontFamily=Helvetica;html=1;fontSize=14;" vertex="1" parent="1">
          <mxGeometry x="1160.004761904762" y="1455.5" width="127" height="50" as="geometry" />
        </mxCell>
        <mxCell id="rjNIYCZi8iE1wRwv1HyM-212" style="edgeStyle=orthogonalEdgeStyle;rounded=1;orthogonalLoop=1;jettySize=auto;html=1;exitX=1;exitY=0.5;exitDx=0;exitDy=0;entryX=0;entryY=0.5;entryDx=0;entryDy=0;fontSize=20;strokeWidth=3;" edge="1" parent="1" source="rjNIYCZi8iE1wRwv1HyM-200" target="rjNIYCZi8iE1wRwv1HyM-211">
          <mxGeometry relative="1" as="geometry">
            <Array as="points">
              <mxPoint x="1670" y="1581" />
              <mxPoint x="1670" y="1581" />
            </Array>
          </mxGeometry>
        </mxCell>
        <mxCell id="rjNIYCZi8iE1wRwv1HyM-213" style="edgeStyle=orthogonalEdgeStyle;rounded=1;orthogonalLoop=1;jettySize=auto;html=1;exitX=1;exitY=0.5;exitDx=0;exitDy=0;entryX=0;entryY=0.5;entryDx=0;entryDy=0;fontSize=20;strokeWidth=3;" edge="1" parent="1" source="rjNIYCZi8iE1wRwv1HyM-200" target="rjNIYCZi8iE1wRwv1HyM-210">
          <mxGeometry relative="1" as="geometry" />
        </mxCell>
        <mxCell id="rjNIYCZi8iE1wRwv1HyM-200" value="&lt;span style=&quot;font-size: 20px;&quot;&gt;게시글&lt;br&gt;관리&lt;br&gt;&lt;/span&gt;" style="rounded=1;strokeWidth=2;fontFamily=Helvetica;html=1;fontSize=14;" vertex="1" parent="1">
          <mxGeometry x="1160.004761904762" y="1555.5" width="127" height="50" as="geometry" />
        </mxCell>
        <mxCell id="rjNIYCZi8iE1wRwv1HyM-210" value="&lt;span style=&quot;font-size: 20px;&quot;&gt;게시글&lt;br&gt;수정&lt;br&gt;&lt;/span&gt;" style="rounded=1;strokeWidth=2;fontFamily=Helvetica;html=1;fontSize=14;" vertex="1" parent="1">
          <mxGeometry x="1690.004761904762" y="1455.5" width="127" height="50" as="geometry" />
        </mxCell>
        <mxCell id="rjNIYCZi8iE1wRwv1HyM-211" value="&lt;span style=&quot;font-size: 20px;&quot;&gt;게시글&lt;br&gt;삭제&lt;br&gt;&lt;/span&gt;" style="rounded=1;strokeWidth=2;fontFamily=Helvetica;html=1;fontSize=14;" vertex="1" parent="1">
          <mxGeometry x="1690.004761904762" y="1555.5" width="127" height="50" as="geometry" />
        </mxCell>
        <mxCell id="rjNIYCZi8iE1wRwv1HyM-214" value="" style="strokeColor=#FFFFFF;fillColor=#BAC8D3;fontSize=18;strokeWidth=2;fontFamily=Helvetica;html=1;opacity=90;" vertex="1" parent="1">
          <mxGeometry x="244" y="1630" width="646.6666666666666" height="100" as="geometry" />
        </mxCell>
        <mxCell id="rjNIYCZi8iE1wRwv1HyM-215" value="" style="strokeColor=#FFFFFF;fillColor=#BAC8D3;fontSize=18;strokeWidth=2;fontFamily=Helvetica;html=1;opacity=90;" vertex="1" parent="1">
          <mxGeometry x="891" y="1630" width="646.6666666666666" height="100" as="geometry" />
        </mxCell>
        <mxCell id="rjNIYCZi8iE1wRwv1HyM-216" value="" style="strokeColor=#FFFFFF;fillColor=#BAC8D3;fontSize=18;strokeWidth=2;fontFamily=Helvetica;html=1;opacity=60;fontStyle=4" vertex="1" parent="1">
          <mxGeometry x="1537.3333333333333" y="1730" width="646.6666666666666" height="100" as="geometry" />
        </mxCell>
        <mxCell id="rjNIYCZi8iE1wRwv1HyM-217" value="" style="strokeColor=#FFFFFF;fillColor=#BAC8D3;fontSize=18;strokeWidth=2;fontFamily=Helvetica;html=1;opacity=90;" vertex="1" parent="1">
          <mxGeometry x="1537.33" y="1630" width="646.6666666666666" height="100" as="geometry" />
        </mxCell>
        <mxCell id="rjNIYCZi8iE1wRwv1HyM-228" style="edgeStyle=orthogonalEdgeStyle;rounded=1;orthogonalLoop=1;jettySize=auto;html=1;exitX=1;exitY=0.5;exitDx=0;exitDy=0;entryX=0;entryY=0.5;entryDx=0;entryDy=0;fontSize=20;strokeWidth=3;" edge="1" parent="1" source="rjNIYCZi8iE1wRwv1HyM-218" target="rjNIYCZi8iE1wRwv1HyM-227">
          <mxGeometry relative="1" as="geometry" />
        </mxCell>
        <mxCell id="rjNIYCZi8iE1wRwv1HyM-253" style="edgeStyle=orthogonalEdgeStyle;rounded=1;orthogonalLoop=1;jettySize=auto;html=1;exitX=1;exitY=0.5;exitDx=0;exitDy=0;entryX=0;entryY=0.5;entryDx=0;entryDy=0;fontSize=20;strokeWidth=3;" edge="1" parent="1" source="rjNIYCZi8iE1wRwv1HyM-218" target="rjNIYCZi8iE1wRwv1HyM-252">
          <mxGeometry relative="1" as="geometry" />
        </mxCell>
        <mxCell id="rjNIYCZi8iE1wRwv1HyM-218" value="&lt;span style=&quot;font-size: 20px;&quot;&gt;아파트&lt;br&gt;검색&lt;br&gt;&lt;/span&gt;" style="rounded=1;strokeWidth=2;fontFamily=Helvetica;html=1;fontSize=14;" vertex="1" parent="1">
          <mxGeometry x="503.834761904762" y="1650" width="127" height="50" as="geometry" />
        </mxCell>
        <mxCell id="rjNIYCZi8iE1wRwv1HyM-220" style="edgeStyle=orthogonalEdgeStyle;rounded=1;orthogonalLoop=1;jettySize=auto;html=1;exitX=1;exitY=0.5;exitDx=0;exitDy=0;entryX=0;entryY=0.5;entryDx=0;entryDy=0;fontSize=20;strokeWidth=3;" edge="1" parent="1" source="90" target="rjNIYCZi8iE1wRwv1HyM-218">
          <mxGeometry relative="1" as="geometry">
            <mxPoint x="340.0045578231292" y="1180" as="sourcePoint" />
            <mxPoint x="446.4447619047618" y="1680" as="targetPoint" />
          </mxGeometry>
        </mxCell>
        <mxCell id="rjNIYCZi8iE1wRwv1HyM-247" style="edgeStyle=orthogonalEdgeStyle;rounded=1;orthogonalLoop=1;jettySize=auto;html=1;exitX=1;exitY=0.5;exitDx=0;exitDy=0;entryX=0.26;entryY=0.4;entryDx=0;entryDy=0;entryPerimeter=0;fontSize=20;strokeWidth=3;" edge="1" parent="1" source="rjNIYCZi8iE1wRwv1HyM-221" target="rjNIYCZi8iE1wRwv1HyM-237">
          <mxGeometry relative="1" as="geometry" />
        </mxCell>
        <mxCell id="rjNIYCZi8iE1wRwv1HyM-221" value="&lt;span style=&quot;font-size: 20px;&quot;&gt;거래 내역 &lt;br&gt;조회&lt;br&gt;&lt;/span&gt;" style="rounded=1;strokeWidth=2;fontFamily=Helvetica;html=1;fontSize=14;" vertex="1" parent="1">
          <mxGeometry x="1220.004761904762" y="1650" width="127" height="50" as="geometry" />
        </mxCell>
        <mxCell id="rjNIYCZi8iE1wRwv1HyM-246" style="edgeStyle=orthogonalEdgeStyle;rounded=1;orthogonalLoop=1;jettySize=auto;html=1;exitX=1;exitY=0.5;exitDx=0;exitDy=0;entryX=0;entryY=0.5;entryDx=0;entryDy=0;fontSize=20;strokeWidth=3;" edge="1" parent="1" source="rjNIYCZi8iE1wRwv1HyM-224" target="rjNIYCZi8iE1wRwv1HyM-245">
          <mxGeometry relative="1" as="geometry" />
        </mxCell>
        <mxCell id="rjNIYCZi8iE1wRwv1HyM-224" value="&lt;span style=&quot;font-size: 20px;&quot;&gt;즐겨칮기&lt;br&gt;리스트&lt;br&gt;&lt;/span&gt;" style="rounded=1;strokeWidth=2;fontFamily=Helvetica;html=1;fontSize=14;" vertex="1" parent="1">
          <mxGeometry x="1050.004761904762" y="1749.75" width="127" height="50" as="geometry" />
        </mxCell>
        <mxCell id="rjNIYCZi8iE1wRwv1HyM-229" style="edgeStyle=orthogonalEdgeStyle;rounded=1;orthogonalLoop=1;jettySize=auto;html=1;exitX=1;exitY=0.5;exitDx=0;exitDy=0;entryX=0;entryY=0.5;entryDx=0;entryDy=0;fontSize=20;strokeWidth=3;" edge="1" parent="1" source="rjNIYCZi8iE1wRwv1HyM-227" target="rjNIYCZi8iE1wRwv1HyM-224">
          <mxGeometry relative="1" as="geometry" />
        </mxCell>
        <mxCell id="rjNIYCZi8iE1wRwv1HyM-227" value="&lt;font style=&quot;font-size: 20px;&quot;&gt;로그인&lt;br&gt;&amp;nbsp;확인&lt;/font&gt;" style="rhombus;whiteSpace=wrap;html=1;fontSize=14;rounded=1;strokeWidth=2;arcSize=0;" vertex="1" parent="1">
          <mxGeometry x="720" y="1720" width="110" height="109.5" as="geometry" />
        </mxCell>
        <mxCell id="rjNIYCZi8iE1wRwv1HyM-232" value="" style="strokeColor=#FFFFFF;fillColor=#BAC8D3;fontSize=18;strokeWidth=2;fontFamily=Helvetica;html=1;opacity=90;" vertex="1" parent="1">
          <mxGeometry x="1537.6699999999998" y="1830" width="646.6666666666666" height="100" as="geometry" />
        </mxCell>
        <mxCell id="rjNIYCZi8iE1wRwv1HyM-233" value="&lt;span style=&quot;font-size: 20px;&quot;&gt;즐겨찾기&lt;br&gt;삭제&lt;br&gt;&lt;/span&gt;" style="rounded=1;strokeWidth=2;fontFamily=Helvetica;html=1;fontSize=14;" vertex="1" parent="1">
          <mxGeometry x="1700.004761904762" y="1855" width="127" height="50" as="geometry" />
        </mxCell>
        <mxCell id="rjNIYCZi8iE1wRwv1HyM-234" value="&lt;span style=&quot;font-size: 20px;&quot;&gt;즐겨찾기&lt;br&gt;수정&lt;br&gt;&lt;/span&gt;" style="rounded=1;strokeWidth=2;fontFamily=Helvetica;html=1;fontSize=14;" vertex="1" parent="1">
          <mxGeometry x="1700.004761904762" y="1755" width="127" height="50" as="geometry" />
        </mxCell>
        <mxCell id="rjNIYCZi8iE1wRwv1HyM-235" value="" style="strokeColor=#FFFFFF;fillColor=#BAC8D3;fontSize=18;strokeWidth=2;fontFamily=Helvetica;html=1;opacity=90;" vertex="1" parent="1">
          <mxGeometry x="239.99999999999977" y="1829.5" width="646.6666666666666" height="100" as="geometry" />
        </mxCell>
        <mxCell id="rjNIYCZi8iE1wRwv1HyM-236" value="" style="strokeColor=#FFFFFF;fillColor=#BAC8D3;fontSize=18;strokeWidth=2;fontFamily=Helvetica;html=1;opacity=90;" vertex="1" parent="1">
          <mxGeometry x="890.66" y="1830" width="646.67" height="100" as="geometry" />
        </mxCell>
        <mxCell id="rjNIYCZi8iE1wRwv1HyM-237" value="&lt;span style=&quot;font-size: 20px;&quot;&gt;주변 상권&lt;br&gt;조회&lt;br&gt;&lt;/span&gt;" style="rounded=1;strokeWidth=2;fontFamily=Helvetica;html=1;fontSize=14;" vertex="1" parent="1">
          <mxGeometry x="1690.004761904762" y="1654" width="127" height="50" as="geometry" />
        </mxCell>
        <mxCell id="rjNIYCZi8iE1wRwv1HyM-249" style="edgeStyle=orthogonalEdgeStyle;rounded=1;orthogonalLoop=1;jettySize=auto;html=1;exitX=1;exitY=0.5;exitDx=0;exitDy=0;entryX=0;entryY=0.5;entryDx=0;entryDy=0;fontSize=20;strokeWidth=3;" edge="1" parent="1" source="rjNIYCZi8iE1wRwv1HyM-230" target="rjNIYCZi8iE1wRwv1HyM-233">
          <mxGeometry relative="1" as="geometry" />
        </mxCell>
        <mxCell id="rjNIYCZi8iE1wRwv1HyM-250" style="edgeStyle=orthogonalEdgeStyle;rounded=1;orthogonalLoop=1;jettySize=auto;html=1;exitX=1;exitY=0.5;exitDx=0;exitDy=0;entryX=0;entryY=0.5;entryDx=0;entryDy=0;fontSize=20;strokeWidth=3;" edge="1" parent="1" source="rjNIYCZi8iE1wRwv1HyM-230" target="rjNIYCZi8iE1wRwv1HyM-234">
          <mxGeometry relative="1" as="geometry" />
        </mxCell>
        <mxCell id="rjNIYCZi8iE1wRwv1HyM-230" value="&lt;span style=&quot;font-size: 20px;&quot;&gt;즐겨찾기&lt;br&gt;관리&lt;br&gt;&lt;/span&gt;" style="rounded=1;strokeWidth=2;fontFamily=Helvetica;html=1;fontSize=14;fillColor=default;" vertex="1" parent="1">
          <mxGeometry x="1360.004761904762" y="1855" width="127" height="50" as="geometry" />
        </mxCell>
        <mxCell id="rjNIYCZi8iE1wRwv1HyM-244" style="edgeStyle=orthogonalEdgeStyle;rounded=1;orthogonalLoop=1;jettySize=auto;html=1;exitX=0.5;exitY=1;exitDx=0;exitDy=0;entryX=0;entryY=0.5;entryDx=0;entryDy=0;fontSize=20;strokeWidth=3;" edge="1" parent="1" source="rjNIYCZi8iE1wRwv1HyM-224" target="rjNIYCZi8iE1wRwv1HyM-230">
          <mxGeometry relative="1" as="geometry" />
        </mxCell>
        <mxCell id="rjNIYCZi8iE1wRwv1HyM-245" value="&lt;span style=&quot;font-size: 20px;&quot;&gt;즐겨찾기&lt;br&gt;추가&lt;br&gt;&lt;/span&gt;" style="rounded=1;strokeWidth=2;fontFamily=Helvetica;html=1;fontSize=14;fillColor=default;" vertex="1" parent="1">
          <mxGeometry x="1370.004761904762" y="1749.75" width="127" height="50" as="geometry" />
        </mxCell>
        <mxCell id="rjNIYCZi8iE1wRwv1HyM-255" style="edgeStyle=orthogonalEdgeStyle;rounded=1;orthogonalLoop=1;jettySize=auto;html=1;exitX=1;exitY=0.5;exitDx=0;exitDy=0;entryX=0;entryY=0.5;entryDx=0;entryDy=0;fontSize=20;strokeWidth=3;" edge="1" parent="1" source="rjNIYCZi8iE1wRwv1HyM-252" target="rjNIYCZi8iE1wRwv1HyM-254">
          <mxGeometry relative="1" as="geometry" />
        </mxCell>
        <mxCell id="rjNIYCZi8iE1wRwv1HyM-252" value="&lt;span style=&quot;font-size: 20px;&quot;&gt;지역 선택&lt;br&gt;&lt;/span&gt;" style="rounded=1;strokeWidth=2;fontFamily=Helvetica;html=1;fontSize=14;" vertex="1" parent="1">
          <mxGeometry x="730.004761904762" y="1650" width="127" height="50" as="geometry" />
        </mxCell>
        <mxCell id="rjNIYCZi8iE1wRwv1HyM-256" style="edgeStyle=orthogonalEdgeStyle;rounded=1;orthogonalLoop=1;jettySize=auto;html=1;exitX=1;exitY=0.5;exitDx=0;exitDy=0;entryX=0;entryY=0.5;entryDx=0;entryDy=0;fontSize=20;strokeWidth=3;" edge="1" parent="1" source="rjNIYCZi8iE1wRwv1HyM-254" target="rjNIYCZi8iE1wRwv1HyM-221">
          <mxGeometry relative="1" as="geometry" />
        </mxCell>
        <mxCell id="rjNIYCZi8iE1wRwv1HyM-254" value="&lt;span style=&quot;font-size: 20px;&quot;&gt;아파트&lt;br&gt;선택&lt;br&gt;&lt;/span&gt;" style="rounded=1;strokeWidth=2;fontFamily=Helvetica;html=1;fontSize=14;" vertex="1" parent="1">
          <mxGeometry x="940.004761904762" y="1650" width="127" height="50" as="geometry" />
        </mxCell>
      </root>
    </mxGraphModel>
  </diagram>
</mxfile>
